<?xml version="1.0" encoding="UTF-8"?>
<svg id="Layer_1" data-name="Layer 1" xmlns="http://www.w3.org/2000/svg" viewBox="0 0 64.58 149.85">
  <defs>
    <style>
      .cls-1 {
        fill: #8cc63f;
        stroke-width: 0px;
      }
    </style>
  </defs>
  <path class="cls-1" d="m30.54,134.05c-.06.12-.02.21.01.3.31.69.17,1.39.05,2.08-.12.7-.34,1.36-.62,2.02-.32.78-.76,1.52-.9,2.4-.11.71-.41,1.39-.6,2.1-.19.72-.02,1.36.22,2.02.28.74.74,1.38,1.09,2.08.31.61.76,1.11,1.28,1.54.09.07.18.14.24.23.15.21.22.44.11.69-.11.25-.34.33-.6.35-.7.04-1.23-.31-1.67-.79-.55-.61-1.06-1.26-1.56-1.91-.54-.71-.69-1.57-.76-2.43-.05-.61-.07-1.25.05-1.84.12-.6.27-1.2.46-1.79.14-.45.13-.47-.31-.54-.18-.03-.37-.08-.55-.1-.59-.04-1.02-.36-1.35-.82-.21-.29-.44-.56-.66-.83-.54-.66-.08-2.17.46-2.64.57-.49,1.58-.52,2.28-.21.62.28,1.09.69,1.44,1.31.23-.22.21-.48.28-.7.05-.18.03-.38.1-.55.38-.85.24-1.71.07-2.58-.21-1.09-.64-2.07-1.48-2.82-.28-.25-.46-.59-.83-.75-.69-.29-1.39-.41-2.12-.14-.26.09-.54.17-.79.28-.35.15-.38.2-.23.55.22.52.15,1.02-.04,1.53-.12.32-.33.53-.65.66-.55.22-1.1.35-1.68.09-.3-.13-.64-.13-.88-.42-.37-.44-.44-1.2-.07-1.77.51-.79,1.2-1.27,2.17-1.26.23,0,.44-.04.64-.16.7-.4,1.46-.67,2.26-.82.36-.07.45-.15.36-.48-.2-.74-.28-1.51-.61-2.21-.18-.37-.23-.78-.31-1.18-.06,0-.11,0-.12,0-.38.59-.98.97-1.41,1.51-.15.18-.34.28-.56.35-1.33.37-2.58.2-3.77-.5-1.07-.63-1.74-1.61-2.29-2.68-.19-.37-.42-.72-.71-1.01-.23-.24-.37-.5-.46-.82-.12-.43-.29-.85-.51-1.24-.16-.3-.23-.63-.33-.94-.27-.79-.42-1.63-.8-2.38-.2-.4-.46-.77-.88-.99-.38-.19-.53-.58-.69-.92-.18-.38.43-1.05.92-1.05.3,0,.6,0,.89.07.97.21,1.89-.03,2.82-.25.69-.17,1.32-.51,1.96-.81,1.15-.54,2.38-.74,3.64-.81.33-.02.62.13.91.24.77.3,1.47.71,2.08,1.27.19.17.31.38.39.61.07.2.15.38.26.56.13.19.2.4.19.63-.03.4.12.78.2,1.16.13.66-.05,1.26-.26,1.86-.09.25-.21.48-.31.72-.13.29-.04.55.23.7.13.07.21.02.28-.08.68-.91,1.58-1.59,2.39-2.35.32-.31.7-.55,1.07-.82.59-.43,1.18-.85,1.79-1.26.41-.27.75-.63,1.05-1,.32-.39.63-.79.97-1.17.36-.41.52-.93.84-1.41-.33,0-.94.21-1.3.43-.1.06-.2.12-.28.19-1.07.96-2.38.95-3.7.91-.87-.03-1.69-.28-2.51-.54-.71-.22-1.32-.64-1.89-1.08-.42-.33-.64-.9-.79-1.46-.21-.79-.09-1.57.2-2.3.2-.5.48-1.01.99-1.32.19-.12.37-.26.53-.41.55-.49,1.23-.66,1.92-.83.72-.17,1.44-.17,2.17-.24.46-.04.89.1,1.32.22.7.19,1.39.44,2.07.7.42.17.76.49,1.02.86.39.55.95.95,1.3,1.54.14.23.3.18.51.04.7-.49.98-1.25,1.31-1.98.07-.15.05-.33.03-.5-.13-1.19-.18-2.39-.29-3.57-.07-.75-.2-1.52-.69-2.16-.13-.17-.19-.4-.28-.61-.56-1.24-1.11-2.49-1.69-3.72-.45-.96-.94-1.91-1.41-2.87-.24-.49-.56-.93-.87-1.37-.08-.11-.17-.2-.31-.23-.69-.12-1.37-.23-2,.21-.12.08-.26.14-.4.2-.27.13-.52.29-.74.51-.12.12-.26.26-.17.44.08.16.27.1.41.08,1.1-.17,1.79.5,2.34,1.26.78,1.07.98,2.33,1.01,3.66.03,1.26-.42,2.38-.81,3.52-.04.12-.1.26-.19.34-.56.41-.9,1.05-1.49,1.44-.27.18-.42.47-.67.67-.58.46-1.29.55-1.97.75-.95.28-1.94.4-2.91.59-.45.09-.92.13-1.38.17-.91.08-1.82.19-2.74.15-.83-.04-1.64.13-2.45.23-.09.01-.21.03-.26.09-.23.29-.57.35-.87.48-.64.27-1.16.73-1.78,1.05-.53.27-1.08.41-1.64.54-.39.09-.64-.19-.85-.44-.21-.25-.02-.49.14-.71.38-.53.86-.99,1.31-1.45.27-.27.49-.54.61-.92.15-.5.44-.95.5-1.48.01-.1.09-.21.15-.3.5-.69.67-1.49.84-2.3.11-.53.24-1.05.36-1.58.07-.33.19-.65.12-.99-.04-.19.05-.37.14-.53.21-.38.29-.81.4-1.22.28-1.04.57-2.06,1.1-3.03.65-1.18,1.61-2.04,2.56-2.93.3-.28.68-.46,1.1-.54.22-.04.44-.11.64-.19,1.05-.44,2.15-.42,3.25-.32.25.02.45.14.68.25.74.35,1.35.85,1.88,1.47.15.18.29.21.46.03.07-.08.18-.14.29-.16.69-.14,1.24-.61,1.9-.81.22-.07.29-.23.25-.44-.03-.17-.06-.33-.12-.49-.33-.84-.35-1.71-.21-2.59.04-.28,0-.52-.22-.71-.22-.2-.43-.42-.66-.61-.15-.13-.28-.08-.34.11-.06.18-.12.36-.14.54-.19,1.33-1.54,2.26-2.76,2.41-1.33.17-2.42-.32-3.43-1.08-1.03-.77-1.84-1.75-2.51-2.83-.43-.69-.7-1.48-1.07-2.21-.27-.54-.46-1.1-.56-1.69-.11-.63-.27-1.23-.59-1.8-.21-.36-.23-.83-.64-1.08-.08-.05-.05-.17-.04-.27.02-.19-.04-.37-.11-.54-.17-.47,0-.84.47-1.01.26-.09.53-.11.77.02.92.5,1.92.81,2.91,1.13.45.15.9.26,1.38.17.26-.05.52.02.78.05.74.07,1.49.15,2.23.21.68.06,1.34-.1,2-.23,1.02-.2,1.93.02,2.74.65.43.33.81.69,1.09,1.18.5.89.39,1.77.05,2.65-.17.45-.46.86-.69,1.28-.19.33-.42.62-.81.72.02.08.02.13.04.14.64.52.64.49.97-.25.32-.71.54-1.48,1.09-2.07.16-.18.29-.4.39-.61.12-.25.3-.44.52-.57.53-.31.88-.81,1.36-1.17.22-.17.18-.35.02-.53-.48-.54-.85-1.2-1.65-1.35-.15-.03-.27-.14-.25-.33.02-.17.12-.28.27-.32.45-.12.88-.11,1.29.17.47.32.85.73,1.23,1.14.43.46.43.47.99.23.1-.04.21-.1.31-.12.95-.21,1.85-.57,2.82-.7.68-.09,1.34-.03,1.99.19.16.05.32.12.48.15.18.03.27-.08.34-.23.07-.16-.03-.24-.16-.3-.85-.38-1.44-1.05-1.94-1.81-.13-.2-.27-.36-.5-.42-.22-.07-.4-.2-.58-.33-.49-.38-.7-.91-.52-1.43.19-.55.67-.73,1.18-.82.37-.07.74.02,1.1.13.8.24,1.11.97.67,1.68-.26.42-.18.71.04,1.06.15.24.3.48.51.67.42.38.88.32,1.19-.14.05-.08.12-.15.14-.24.18-.82.58-1.58.71-2.42.03-.21.05-.41-.02-.61-.07-.22-.07-.44-.08-.67-.02-.69-.21-1.31-.62-1.88-.22-.3-.31-.67-.51-.99-.46-.77-.95-1.5-1.53-2.19-.8-.96-1.56-1.95-2.22-3.01-.16-.27-.42-.47-.64-.71-.12-.13-.25-.13-.32,0-.44.78-1.19,1.22-1.84,1.77-.58.49-.54.5-.19,1.2.25.49.59.99.51,1.58-.14,1.09-.55,2.09-1.19,2.99-.11.15-.28.25-.43.35-.65.44-1.32.85-2.02,1.2-.31.15-.63.23-.96.3-1.15.22-2.3.3-3.45.05-.48-.1-.94-.27-1.38-.47-.98-.45-1.95-.9-2.83-1.57-.81-.62-1.61-1.28-2.58-1.67-.32-.12-.58-.34-.88-.5-.72-.38-1.49-.51-2.28-.35-.44.09-.81-.11-1.19-.24-.31-.11-.3-.61-.02-.86.23-.2.5-.32.81-.36.61-.09,1.2-.27,1.8-.43,1.1-.29,1.99-.88,2.79-1.69.64-.66,1.3-1.3,1.78-2.08.39-.64.96-1.14,1.32-1.8.05-.1.14-.18.23-.25.73-.53,1.47-1.04,2.36-1.25.6-.14,1.22-.14,1.83-.26.56-.11,1.08-.05,1.6.14.47.17.89.47,1.31.74.39.25.62.64.82,1.05.4.83.73,1.69.51,2.64-.06.25-.12.56.12.73.25.18.53.07.79-.07.51-.26.92-.64,1.34-1,.28-.24.32-.63.43-.96.06-.17-.08-.32-.21-.43-1.58-1.29-2.63-3.05-4-4.53-.43-.47-.85-.94-1.2-1.48-.22-.34-.33-.36-.63-.09-.54.5-1.22.79-1.79,1.25-.44.36-.97.47-1.52.47-.29,0-.56-.09-.75-.31-.14-.17-.22-.37-.07-.57.14-.2.37-.32.59-.17.48.33.89.08,1.24-.16.6-.41,1.18-.85,1.71-1.36.22-.22.24-.39.07-.62-.24-.34-.45-.69-.69-1.02-.28-.39-.46-.81-.59-1.27-.05-.2-.15-.38-.2-.58-.08-.26-.24-.41-.52-.44-1.21-.17-2.28-.7-3.36-1.22-.69-.33-1.24-.88-1.81-1.39-.8-.73-1.37-1.62-2-2.48-.25-.34-.54-.41-.93-.32-.72.17-1.29.58-1.82,1.06-.11.1-.22.22-.15.39.06.15.21.14.34.15,1.6.21,2.84,1.05,3.72,2.35.56.82.81,1.78.86,2.81.06,1.03-.29,1.95-.61,2.88-.02.05-.04.11-.07.15-.72.81-1.2,1.8-2.08,2.49-.53.41-1.07.81-1.62,1.2-.22.15-.44.28-.69.36-.36.11-.69.28-1,.5-.25.17-.53.27-.81.37-.8.27-1.6.5-2.43.66-.11.02-.22.04-.33.04-.4-.01-.78.04-1.16.15-.76.2-1.52.36-2.3.45-.92.1-1.85.35-2.7.72-.84.37-1.59.92-1.89,1.88-.08.27-.27.44-.5.58-.38.23-.63.12-.62-.32,0-.63.12-1.23.55-1.73.34-.41.58-.87.78-1.36.11-.26.19-.53.21-.81.13-1.28.13-2.54-.14-3.83-.31-1.47-.55-2.98-.48-4.5.04-.86-.11-1.71-.09-2.57.01-.84,0-1.69.13-2.52.19-1.18.74-2.21,1.64-3.06.65-.61,1.39-1.09,2.13-1.52.76-.44,1.64-.63,2.54-.58.45.03.89.06,1.34.07.46.01.86.19,1.27.38.72.33,1.26.85,1.73,1.47.14.19.36.32.52.5.3.34.51.73.67,1.16.11.29.2.32.46.13.59-.43,1.26-.73,1.88-1.11.19-.12.55-.03.57-.35.02-.22-.08-.44-.12-.66-.13-.71-.15-1.44-.21-2.16-.03-.39-.1-.78-.1-1.17,0-.32-.08-.39-.36-.32-1.07.25-2.13.06-3.16-.21-.87-.23-1.64-.71-2.25-1.4-.21-.24-.42-.48-.74-.57-.19-.06-.31-.2-.39-.38-.09-.19-.19-.37-.28-.55-.49-1-1.02-1.26-2.2-1.04.12.15.24.28.35.42.2.26.34.54.31.88-.02.21.02.41.08.61.4,1.38-.56,2.71-1.75,3.19-.32.13-.66.13-1,.07-.29-.05-.59-.12-.88-.19-1.09-.23-1.39-1.13-1.5-1.87-.01-.07-.01-.16.02-.22.33-.66.41-1.45,1.01-1.98.12-.1.32-.22.26-.4-.06-.2-.3-.21-.48-.23-.34-.02-.67-.07-1-.13-.57-.11-.96-.43-1.23-.96-.31-.61-.36-1.26-.34-1.91.01-.43-.15-.62-.53-.78-.8-.35-1.65-.61-2.3-1.26-.16-.16-.39-.22-.61-.27-.52-.12-.91-.44-1.24-.83-.57-.66-.46-1.34.27-1.8.36-.22.68-.48,1.18-.35.95.23,1.34.65,1.36,1.63,0,.09.01.19-.01.28-.21.77.05.77.58,1.05.2.1.4.19.6.3.19.1.38.15.59.15.27,0,.41-.12.45-.39.15-1.36.28-2.72-.08-4.07-.12-.43-.17-.88-.22-1.33-.03-.24-.11-.43-.27-.6-.63-.65-1.3-1.24-2.18-1.53-.25-.08-.48-.21-.71-.33-.24-.13-.36-.32-.29-.6.07-.25.32-.45.58-.45.21,0,.41.05.59.16.31.19.64.32.98.42.76.23,1.32.76,1.88,1.29.28.26.43.59.51.98.11.53.28,1.04.46,1.55.15.45.28.9.25,1.37-.05.78-.01,1.56-.14,2.34-.1.59-.2,1.18-.28,1.77-.08.57-.17,1.15-.05,1.72.15.7.63,1.09,1.28,1.26.31.08.61.16.91.26.43.16.89.18,1.31-.05.42-.24.88-.33,1.32-.45.82-.22,1.59-.01,2.31.39.17.09.25.27.38.41.23.26.31.26.54.02.08-.08.15-.17.2-.27.48-.98,2.22-1.52,3.5-.56.36.27.44.71.32,1.12-.12.43-.29.87-.53,1.23-.28.42-.76.64-1.2.89-.12.07-.29.07-.41.22.23.43.69.57,1.09.69.83.26,1.69.27,2.54.01.49-.15.77-.48.86-1,.18-1,.57-1.93,1-2.85.29-.63.62-1.23.93-1.84.53-1.06,1.21-2.02,2.14-2.78.22-.18.41-.38.55-.62.2-.34.58-.52.83-.79-.04-.15-.15-.14-.23-.15-.69-.02-1.32-.24-1.88-.65-.09-.07-.19-.12-.28-.19-.2-.15-.36-.17-.51.07-.11.17-.25.32-.4.47-.38.38-.76.78-1.33.89-.13.02-.24.09-.36.15-1.2.62-2.47.74-3.8.65-1.35-.09-2.39-.77-3.36-1.63-.67-.59-1.23-1.25-1.62-2.06,0-.02-.02-.03-.03-.05-.55-1.35-1.17-2.7-.99-4.21.14-1.11.36-2.22.84-3.25.29-.63.59-1.25.95-1.85.3-.5.39-1.09.6-1.63.18-.45.3-.92.56-1.34.16-.26.25-.55.26-.85.02-.56.12-1.11.05-1.68-.04-.38-.1-.73-.28-1.08-.19-.36-.12-.65.12-.79.23-.13.75-.02.92.22.09.14.14.3.21.46.23.5.55.89,1,1.24.69.53,1.48.8,2.26,1.09.65.24,1.26.57,1.92.77.95.29,1.9.56,2.82.93.45.18.9.36,1.3.65.12.09.25.18.39.22.75.2,1.44.53,2.05,1.01.83.67,1.66,1.34,2.01,2.41.03.11.08.22.14.31.59.88.55,1.87.5,2.87-.04.72-.28,1.35-.8,1.85-.04.04-.08.08-.1.13-.39.85-1.16,1.31-1.88,1.79-.51.34-1.14.46-1.74.59-.21.05-.52,0-.55.27-.03.26.26.34.45.43.76.35,1.57.5,2.39.54.42.02.8-.3,1.13-.58.29-.24.57-.49.93-.61.09-.03.16-.09.24-.14.93-.69,1.84-1.4,2.81-2.04.39-.26.51-.69.31-1.25-.28-.78-.62-1.53-1.26-2.09-.08-.07-.17-.15-.23-.24-.12-.16-.17-.34-.03-.51.14-.16.32-.12.46-.03.44.25.85.54,1.15.96.35.49.62,1.03.9,1.55.22.42.25.44.61.15.73-.59,1.43-1.2,2.06-1.9.76-.83,1.41-1.73,2-2.68.11-.18.28-.3.44-.43.54-.47,1.01-1,1.23-1.71.11-.36.1-.39-.27-.52-.55-.19-1.1-.35-1.6-.66-.22-.14-.36-.48-.63-.41-.19.05-.31.35-.48.51-1.13,1.07-.99,1-2.57,1.04-.94.02-1.77-.22-2.56-.68-.55-.33-.88-.85-1.14-1.42-.48-1.09-.7-2.24-.94-3.4-.18-.87-.24-1.74-.24-2.62,0-.75-.21-1.44-.72-2.02-.05-.06-.1-.11-.14-.18-.21-.34-.16-.7.04-1.01.21-.32.54-.22.81-.1.58.26,1.15.54,1.7.84.46.25.91.32,1.45.28,1.25-.1,2.53-.09,3.72.32,1.14.39,2.21.92,2.93,2.04.52.81.68,1.62.58,2.5-.07.61-.34,1.18-.9,1.55-.25.16-.48.36-.71.55-.13.1-.18.23-.11.4.28.68,1.18,1.25,1.94,1.23.37-.01.45-.08.51-.45.12-.7.18-1.4.06-2.12-.06-.37-.07-.76.03-1.12.23-.83.1-1.66-.11-2.43-.2-.73-.69-1.37-1.43-1.72-.1-.05-.21-.08-.31-.14-1.05-.54-.94-1.65-.4-2.21.23-.24.45-.48.8-.59.81-.26,2.24.83,1.86,1.79-.05.12-.03.27-.09.38-.27.52-.1.96.19,1.4.3.43.53.9.61,1.49.7-.61,1.39-1.15,2.09-1.66.34-.25.69-.45,1.08-.58.78-.26,1.52-.62,2.24-1.02.67-.37,1.41-.59,2.09-.95.28-.15.55-.31.81-.51.63-.48.86-1.15.86-1.91,0-.41.17-.68.51-.76.34-.08.65.07.83.42.33.62.07,1.2-.15,1.78-.04.1-.11.2-.18.28-.85,1.02-1.71,2.02-2.88,2.71-.61.36-.61.38-.21.96.31.47.66.91.68,1.51,0,.15.04.31-.04.44-.31.55-.88,1.3-1.72,1.24-.13,0-.26-.02-.39,0-1.13.1-1.82-.52-2.34-1.42-.06-.11-.12-.23-.18-.35-.09-.17-.22-.25-.41-.18-.31.12-.64.22-.93.38-.4.23-.68.57-.78,1.05-.19.89-.34,1.79-.48,2.7-.11.72-.34,1.41-.53,2.12-.15.56-.28,1.13-.49,1.67-.06.14-.1.34.11.35.54.02,1.01.28,1.52.4.17.04.34.06.47-.08.7-.69,1.46-.54,2.22-.16.79.39.95.79.72,1.64,0,.04-.02.07-.03.11-.23.86-.6,1.08-1.48.87-.51-.12-.92-.41-1.28-.77-.59-.58-1.34-.84-2.14-.86-.74-.02-1.35.36-1.69,1.02-.36.69-.89,1.25-1.34,1.86-.45.61-1.14,1.01-1.72,1.51-.14.12-.33.19-.37.42.22.2.53.13.78.25.13.06.2-.06.25-.16.11-.26.22-.51.28-.79.05-.23.15-.42.36-.55.89-.56,1.79-1.08,2.87-1.22.91-.12,1.79-.05,2.66.2,1.91.54,3.25,1.79,4.23,3.46.33.56.7,1.11.9,1.74.39,1.19.78,2.39.8,3.65.02,1.33.18,2.64.33,3.95,0,.07.02.15.05.22.41.88.68,1.82,1.15,2.67.22.41.59.72.81,1.14.19.36.38.72.64,1.05.22.28.16.47-.14.65-.32.19-.64.24-1.01.07-.69-.31-1.27-.78-1.83-1.28-1.26-1.12-2.74-1.79-4.4-1.89-1.06-.07-2.12-.23-3.18-.31-.74-.06-1.47-.26-2.2-.44-.62-.16-1.25-.19-1.89-.21-1.43-.04-2.72-.51-3.82-1.41-.5-.41-.9-.94-1.15-1.56-.16-.38-.32-.75-.48-1.13-.28-.67-.33-1.38-.37-2.09-.03-.49.19-.92.43-1.31.37-.58.79-1.14,1.24-1.66.82-.95,1.89-1.37,3.2-1.29-.16-.3-.37-.48-.67-.53-.69-.11-1.35-.13-1.98.33-.65.47-1.25,1.02-1.92,1.46-1.06.7-1.96,1.61-3.03,2.3-.72.46-1.34,1.07-2,1.61-.82.66-1.57,1.38-2.33,2.1-.46.44-.87.92-1.28,1.41-.2.23-.15.37.12.36.75-.03,1.18.49,1.68.9.33.28.63.59.93.9.19.19.38.25.66.21.52-.08.82.06.88.37.06.28-.21.59-.65.74-.43.15-.82.06-1.16-.21-.66-.53-1.38-.97-2.03-1.5-.66-.55-1.55-.27-1.81.57-.26.84-.5,1.68-.7,2.54-.09.4-.08.82-.11,1.23-.04.5-.04,1.01-.12,1.51-.03.17-.05.38.14.54.83-.47,1.75-.69,2.64-1.03.14-.05.29-.09.43-.1.18-.01.34.05.38.25.04.16-.03.29-.18.38-.41.23-.8.48-1.22.68-.27.13-.52.29-.78.43-.53.28-.7.81-.95,1.29-.07.14-.04.29,0,.44.22.72.54,1.42.94,2.03.56.85,1.3,1.59,2.31,1.98.82.31,1.6.72,2.39,1.11.13.06.26.18.42.09.17-.11.14-.3.11-.46-.07-.29-.07-.6-.19-.87-.09-.19-.12-.4-.1-.6.08-.8.23-1.57.56-2.32.28-.65.83-1.1,1.08-1.75.04-.11.16-.2.26-.28.55-.43,1.11-.81,1.82-.96.63-.13,1.02-.49,1.11-1.16.05-.36.24-.66.55-.88.27-.19.52-.43.78-.65.12-.1.24-.18.4-.2.2-.02.39.02.49.2.09.16-.03.29-.13.4-.38.41-.7.87-.9,1.4-.08.2-.07.29.14.38.46.2.97.26,1.42.52.46.26.87.57,1.24.96.1.11.18.24.3.33.54.4.62.95.54,1.56-.08.67,0,.79.66.9.33.05.66.12.99.18.23.04.37-.02.36-.28-.03-.71.33-1.29.68-1.85.68-1.09,1.74-1.55,2.98-1.62.54-.03,1.08-.02,1.62-.02.95,0,1.76.33,2.52.92,1.21.93,1.93,2.15,2.37,3.57.25.82.51,1.64.76,2.46.17.54.18,1.1.3,1.65.09.43.22.83.41,1.21.5,1.03,1.06,2.02,2.04,2.7.15.1.26.26.4.39.17.15.16.33.09.51-.07.19-.24.2-.42.21-.74.07-1.35-.18-1.87-.7-.45-.46-.99-.69-1.65-.72-1.31-.07-2.61-.15-3.91.13-.29.06-.59.04-.89.03-.84-.01-1.66.18-2.51.05-.43-.06-.89.07-1.34.1-1.29.08-2.45-.19-3.35-1.2-.04-.04-.07-.09-.11-.13-.78-.58-.92-1.41-1.08-2.3-.18-1.03.22-1.81.68-2.61.22-.39.61-.65.97-.93.21-.17.47-.28.69-.55-.4-.14-.76-.26-1.12-.25-.4,0-.62.31-.77.65-.18.39-.28.81-.53,1.17-.5.71-1.05,1.4-1.82,1.8-.6.32-1.25.6-1.94.7-.56.08-1.07.33-1.65.33-.23,0-.31.17-.17.35.4.52.69,1.11,1.07,1.64.62.87,1.51,1.51,2.04,2.44.39.68.93,1.26,1.24,1.99.15.37.37.59.8.68.41.08.77.34,1.21.39.48.05.93-.02,1.39-.11.23-.05.35-.19.39-.42.12-.7.6-1.09,1.21-1.36.08-.04.18-.08.27-.07.48.08.96.15,1.42.3.15.05.24.17.3.32.38.99.19,2.08-.79,2.73-.41.27-1.23.2-1.7-.14-.08-.05-.14-.12-.21-.18-.25-.24-.53-.31-.87-.19-.39.13-.8.19-1.21.23-.31.04-.34.16-.15.41.06.07.12.14.19.2,1.02.85,1.77,1.92,2.56,2.97.54.72,1.06,1.45,1.56,2.19.63.92,1.48,1.68,2.02,2.68.24.44.78.68,1.22.94.35.21.7.44,1.16.5.49.06.88-.03,1.28-.35-.3-.28-.65-.44-.99-.6-1.21-.6-2.02-1.5-2.27-2.85-.03-.16-.05-.33-.04-.5.03-.62.2-1.22.32-1.82.07-.35.31-.64.56-.89.31-.3.55-.66.76-1.03.57-1.02,1.5-1.5,2.6-1.67,1.3-.2,2.6-.17,3.89.15.85.21,1.63.49,2.4.9,1.51.8,3.12,1.25,4.83,1.31.3.01.6-.01.9-.05,1.02-.12,2.05-.06,3.06.12.16.03.33.09.47.17.42.24.41.76-.01.99-.18.1-.39.14-.59.16-1.11.09-2.08.45-2.97,1.17-.49.4-.83.89-1.25,1.34-.01.01-.02.04-.03.04-.34.15.19.68-.37.78-.35.07-.43.48-.6.77-.16.28-.27.58-.4.86-.15.3-.25.62-.4.93-.39.83-.75,1.68-1.23,2.45-.31.49-.7.93-1.12,1.32-.7.64-1.46,1.23-2.36,1.58-.43.17-.87.25-1.32.16-.44-.09-.88-.15-1.33-.21-.47-.06-.89-.28-1.3-.5-.22-.12-.32-.33-.38-.54-.27-.87-.63-1.72-.65-2.65-.01-.43-.09-.48-.46-.33-.43.18-.87.32-1.34.39-.53.08-.55.14-.39.67.27.92.15,1.87.03,2.78-.11.84-.43,1.67-.79,2.44-.32.71-.57,1.46-1.11,2.06-.15.16-.21.36-.03.55.5.55.81,1.2,1.02,1.91.02.07.05.14.09.21.12.22.24.25.36.04.24-.42.6-.65,1-.86.67-.35,1.37-.65,2.14-.57,1.34.13,2.58.51,3.66,1.38,1.12.91,2.15,1.91,3.28,2.8.54.42,1.03.91,1.63,1.27.34.21.69.37,1.09.4.2.01.41.05.61.1.37.1.54.58.34.91-.16.24-.36.43-.66.49-.37.08-.71.24-1.06.38-.33.13-.64.27-1.02.24-.94-.07-1.82.23-2.61.71-.85.51-1.76.92-2.57,1.48-.08.05-.16.09-.25.12-.78.26-1.55.55-2.35.75-1.56.4-3.1-.1-3.87-1.68-.13-.27-.33-.48-.42-.79-.2-.72-.15-1.4.16-2.08.03-.07.05-.14.07-.21,0-.01-.01-.03-.03-.06-.2.13-.42.25-.6.4-.59.51-1.32.69-2.05.84-.86.19-1.68-.01-2.42-.47-.63-.39-.67-1.09-.78-1.73-.11-.68-.02-1.35.39-1.93.27-.39.33-.86.57-1.27.44-.73.91-1.41,1.51-2.01.16-.16.28-.35.39-.55.13-.23.07-.36-.2-.37-.73-.03-1.46-.12-2.18.08-.74.21-1.46.47-2.15.82-.56.28-1.01.7-1.47,1.12-.77.72-1.3,1.61-1.8,2.53-.35.65-.64,1.31-.78,2.02-.22,1.1-.38,2.22-.06,3.33.15.51.38,1.01.62,1.5.16.33.2.72.36,1.06.36.74.66,1.51.9,2.29.04.12.1.24.16.36.12.22.27.34.55.24.35-.13.72-.19,1.04-.41.31-.21.69-.27,1.05-.39.55-.18,1.11-.35,1.52-.8.07-.08.18-.14.13-.32-.47.03-.95-.01-1.42-.08-1.35-.18-2.28-1.39-2.17-2.69.06-.76.59-1.44,1.33-1.62.24-.06.47-.11.7-.2.89-.34,1.58.11,2.27.59.63.44.81,1.14,1.09,1.77.19.43.17.46.65.38.74-.13,1.46-.03,2.13.28.52.23.89.67,1.22,1.13.04.06.09.12.11.19.29.8.9,1.19,1.7,1.38.38.09.72.33.98.63.3.36.65.66.98.99.46.46,1,.79,1.61,1,.59.21,1.22.19,1.83.11.74-.1,1.48-.19,2.14-.61.25-.16.66,0,.84.24.12.17.06.32-.05.46-.39.46-.89.76-1.45.91-.61.17-1.24.25-1.86.37-.11.02-.22.02-.33,0-.86-.1-1.69-.32-2.46-.7-.56-.27-1.07-.69-1.53-1.12-.3-.28-.62-.54-.92-.82-.24-.22-.34-.2-.41.12-.14.64-.55,1.04-1.09,1.36-.5.29-1.04.34-1.57.13-.54-.22-.69-.76-.83-1.26-.24-.9.22-1.5.9-2,.18-.13.37-.25.55-.37-.66-1.02-1.64-1.38-2.79-1.08-.39.1-.62.25-.83.63-.32.58-.73,1.12-1.29,1.54-.47.35-.92.7-1.42,1-.47.27-.94.46-1.49.33-.12-.03-.26-.02-.39,0-.27.05-.35.18-.25.44.13.33.29.65.43.97.45,1.03.9,2.05,1.36,3.08.07.15.18.29.25.44.15.31.37.47.74.5.83.06,1.6.33,2.34.71.28.15.47.37.56.67.09.33-.13.57-.46.5-.22-.05-.45-.11-.63-.23-.41-.29-.89-.26-1.34-.34-.26-.05-.32.06-.28.32.07.45.19.88.31,1.31.07.24.21.36.46.23.72-.38,1.41-.18,2.11.06.68.23,1.31.55,1.89.97.39.28.48.26.68-.16.31-.63.86-1.08,1.29-1.62.71-.89,1.62-1.53,2.69-1.96.46-.19.94-.26,1.42-.31,1.17-.13,2.31.02,3.41.47.23.09.43.21.62.37.35.28.68.58,1.06.83.42.27.66.7.9,1.13.11.19.19.41.34.58.87,1.01,1.27,2.23,1.62,3.48.53,1.88.71,3.81.79,5.76.05,1.07.1,2.15.56,3.17.18.4.24.85.42,1.27.33.78.87,1.37,1.43,1.98.41.45.89.87,1.08,1.48.02.07.07.14.08.21.07.35.02.68-.21.95-.14.16-.66.07-.94-.13-.12-.08-.25-.17-.35-.28-.76-.81-1.75-1.21-2.76-1.55-.95-.33-1.95-.52-2.93-.75-1.07-.26-2.17-.38-3.22-.74-.42-.14-.85-.13-1.28-.06-.76.13-1.52.14-2.28.16-.43.01-.85.19-1.28.04-.78-.27-1.6-.38-2.4-.52-.75-.12-1.44-.39-2.13-.66-.34-.13-.64-.31-.88-.58-.56-.63-1.08-1.29-1.51-2.02-.32-.53-.37-1.13-.42-1.73-.07-1.02-.13-2.01.33-3.01.31-.66.62-1.26,1.15-1.75.11-.1.21-.21.3-.33.46-.67,1.12-1.03,1.88-1.23.09-.02.19-.03.27-.06.29-.1.36-.26.13-.43-.83-.64-1.63-1.32-2.64-1.67-.3-.11-.63-.07-.94-.02-.44.08-.56.21-.6.67-.07.77-.3,1.51-.59,2.21-.25.61-.74,1.07-1.24,1.5-.3.25-.54.57-.85.81-.2.15-.23.39-.2.61.07.57-.08,1.09-.42,1.53-.22.29-.18.64-.33.94-.29.55-.64,1.05-1.08,1.5-.42.43-.42.45-.02.92.28.32.59.62.89.93.12.12.25.17.39.05.01-.01.03-.02.05-.03.81-.44,1.01-.38,1.62.29.53.57.52,1.22.38,1.89-.11.52-.5.77-1,.84-.3.04-.6.02-.89-.04-.63-.12-1.06-.54-1.1-1.18-.06-.96-.57-1.59-1.39-2.02-.24-.13-.44-.14-.67.03-.62.45-1.29.84-1.88,1.32-.77.63-1.57,1.25-2.25,1.99-.42.45-.8.93-1.03,1.52-.19.48-.46.93-.61,1.44-.24.84-.21,1.7-.32,2.55-.05.38.09.74.14,1.11.02.2.17.23.33.12.26-.18.54-.32.81-.49.77-.46,1.61-.57,2.47-.67.5-.06.48-.06.54-.54.05-.37.06-.74.2-1.1.22-.59.63-1.02,1.15-1.33.66-.39,1.34-.74,2.03-1.07.53-.25,1.08-.32,1.64-.24,1.75.22,3.17,1.04,4.27,2.42.19.24.33.5.46.77.14.28.26.6.46.83.59.69.8,1.52.96,2.36.13.7.39,1.36.58,2.05.45,1.64,1.5,2.86,2.71,3.97.04.04.1.07.12.11.16.26.35.55.21.83-.13.26-.46.33-.74.31-1.72-.13-3.33.31-4.95.81-.52.16-1.05.27-1.59.3-.36.02-.71.08-1.04.22-.33.15-.68.21-1.04.21-1.1-.03-2.21,0-3.24-.5-.1-.05-.21-.07-.32-.09-.81-.13-1.49-.47-1.95-1.18-.04-.06-.1-.11-.21-.11Zm-.98-27.62c-.68-.13-1.33.16-2.01.26-.5.07-.97.42-1.27.85-.24.34-.42.76-.54,1.16-.11.39-.13.85.13,1.18.32.4.48,1.01,1.15,1.04.09,0,.17.13.25.21.1.08.19.2.3.25.78.33,1.57.59,2.44.52,1.18-.09,2.2-.65,3.26-1.1.45-.19.69-.62,1.07-.88.27-.19.3-.38.16-.66-.2-.41-.55-.7-.81-1.07-.33-.48-.75-.86-1.29-1.13-.36-.18-.74-.28-1.11-.36-.56-.13-1.09-.42-1.73-.27Zm6.94-62.98c.03-.47-.14-.84-.5-1.13-.15-.12-.27-.25-.42-.37-.43-.35-.91-.51-1.46-.33-.5.17-1,.34-1.5.46-.94.22-1.37.97-1.77,1.68-.33.58-.47,1.3-.4,2.01.04.48.05.97-.04,1.45-.05.26.03.52.08.78.03.17.14.27.31.28.33.03.67.11,1,.08.81-.08,1.56-.4,2.25-.81.8-.47,1.48-1.09,1.92-1.91.21-.38.43-.79.48-1.23.03-.31.02-.63.05-.95Zm10.22,73.82c.4.02.52-.12.31-.54-.28-.55-.28-1.16-.36-1.74-.1-.71-.11-1.45-.02-2.17.09-.77.32-1.5.76-2.14.31-.46.29-.68-.22-.9-.38-.17-.72-.39-1-.7-.08-.08-.17-.15-.26-.21-.36-.24-.48-.23-.77.08-.21.22-.39.45-.58.68-.91,1.09-1.35,2.35-1.3,3.77.02.44.26.82.32,1.24.14.93.75,1.57,1.32,2.23.12.14.28.19.44.22.42.06.85.12,1.36.18Zm9.96-7.34c-.08-.68-.13-1.26-.29-1.84-.18-.71-.58-1.13-1.28-1.32-1.51-.41-3.03-.7-4.61-.8-1.3-.08-2.37.42-3.43,1.01-.36.2-.35.38-.03.65.44.37.9.73,1.35,1.09.18.15.37.18.62.16.82-.05,1.63-.23,2.46-.14.89.09,1.78.19,2.67.28.48.05.95.18,1.39.4.35.18.71.32,1.15.52ZM14.7,58.55c.47-.08.85-.19,1.19-.38.38-.21.73-.52.93-.92.12-.23.22-.47.35-.7.38-.66.55-1.38.6-2.14.07-.94-.04-1.87-.18-2.79-.14-.97-.62-1.7-1.59-2.06-.39-.15-.71-.1-.98.17-.25.26-.51.48-.8.69-.31.22-.31.33-.05.63.21.25.39.51.48.82.3,1.02.65,2.04.52,3.13-.14,1.16-.11,2.35-.48,3.55Zm6.3,44.97c.17.02.24.02.31.03.74.05,1.44-.17,2.17-.24.37-.03.67-.3.82-.62.38-.77.69-1.58.83-2.43.13-.8,0-1.6-.1-2.4-.03-.21-.13-.39-.26-.55-.19-.23-.31-.26-.5-.03-.36.43-.8.78-1.2,1.17-.15.15-.18.31-.14.51.09.43,0,.85-.1,1.27-.15.59-.45,1.1-.73,1.63-.29.56-.69,1.06-1.09,1.65Zm11.81,27.08c0,.6.26,1.27.64,1.86.39.6.95,1.08,1.77.95.28-.04.54-.14.81-.21.19-.05.23-.17.18-.34-.04-.13-.09-.25-.13-.37-.22-.69-.32-1.38-.11-2.09.04-.14.04-.3.09-.44.15-.44-.07-.74-.38-.96-.5-.36-1.07-.59-1.66-.77-.21-.06-.39.02-.54.2-.49.6-.62,1.3-.67,2.18Zm-3.71-64.93s.1-.01.16-.03c.77-.21,1.55-.42,2.32-.64.26-.07.28-.18.08-.4-.39-.43-.84-.79-1.29-1.16-.91-.75-1.96-1.21-3.05-1.6-.37-.13-.73-.09-.99.3-.16.25-.37.47-.53.72-.28.43-.29.56.12.85.52.37,1.01.76,1.6,1.03.39.18.76.39,1.08.69.14.13.3.23.51.24Zm-9.74-43.76c.33-.04.76-.08,1.18-.15.29-.05.34-.17.22-.44-.09-.21-.21-.4-.28-.61-.13-.39-.38-.55-.79-.57-.95-.04-1.84-.27-2.63-.84-.27-.2-.56-.38-.86-.53-.32-.17-.56-.42-.8-.69-.27-.31-.49-.66-.73-1-.31-.45-.39-.44-.67.05-.12.22-.14.47-.26.68-.18.32-.11.6.06.9.12.22.29.38.46.56.52.52,1.17.87,1.77,1.28.82.57,1.72.97,2.67,1.28.18.06.36.08.65.09Zm24.88,4.41c-.58-.11-1.14-.03-1.69.03-.33.04-.38.19-.19.44.32.44.65.87.98,1.3.27.36.61.57,1.09.56.85-.02,1.67.17,2.45.5.5.21,1,.42,1.5.62.43.16.53.1.55-.37,0-.22-.07-.45-.04-.67.07-.46-.2-.72-.55-.87-.77-.34-1.45-.83-2.24-1.13-.62-.23-1.2-.52-1.86-.4Zm-22.61-9.7c.12.78-.11,1.43-.61,1.99-.22.25-.23.5-.05.77.25.39.51.79.76,1.18.12.19.28.24.48.11.46-.3.9-.63,1.1-1.16.41-1.07.59-2.2.63-3.34.02-.48-.2-.81-.66-1-.4-.17-.8-.33-1.16-.55-.19-.12-.42-.31-.61-.18-.23.15-.07.44-.07.68,0,.11.05.22.07.33.09.4.21.8.13,1.19Zm-7.2,31.81c-1.05-.42-2.06-.79-3.18-.63-.67.1-1.3.36-1.96.46-.73.11-1.23.59-1.77,1-.1.07-.15.18-.13.3.04.4.07.81.23,1.19.48-.12.93-.25,1.38-.36,1.21-.29,2.4-.74,3.69-.64.15.01.31-.02.42-.12.43-.41.84-.84,1.34-1.2Zm-.71-23.72c0,.11,0,.14,0,.18.03.09.07.18.11.26.47.96,1.25,1.63,2.15,2.13.62.34,1.32.55,2.03.57,1.05.03,2.02-.29,2.93-.8.73-.4,1.2-1.02,1.37-1.91-2.97,1.53-5.82,1.49-8.59-.43Zm30.64,27.03c-.03-.08-.03-.1-.04-.12-.02-.03-.04-.06-.07-.08-1.09-.92-1.7-2.02-1.38-3.5.04-.21.05-.42-.19-.53-.22-.1-.43-.23-.68-.05-.21.16-.43.3-.64.45-.83.61-.92,1.49-.83,2.41.05.55.35,1.02.64,1.48.14.22.32.3.57.27.41-.04.83-.03,1.23-.12.45-.1.93,0,1.39-.21Zm-.68,30.08c-.23-.34-.14-.76-.13-1.18,0-.29-.14-.58-.32-.82-.12-.16-.26-.21-.41-.03-.17.2-.31.42-.43.65-.34.66-.65,1.35-1.09,1.96-.36.49-.55,1.06-.81,1.6-.25.53-.11.79.46.95.6.17,1.18-.01,1.74-.2.11-.04.21-.15.3-.25.28-.34.48-.72.54-1.15.06-.48.02-.97.15-1.52Zm-25.68,15.86c1.34-.39,2.54-.14,3.72.34.35.14.63.04.88-.18.36-.32.71-.66,1.05-1.01.24-.25.24-.38-.05-.59-.62-.44-1.34-.68-2.09-.72-.64-.03-1.3.06-1.94.14-.37.04-.73.13-1.05.35-.11.08-.25.14-.26.28-.04.44-.25.86-.26,1.38Zm9.71-27.82c.67.03,1.23-.27,1.73-.62.88-.61,1.62-1.37,2.24-2.25.12-.17.28-.37.13-.56-.16-.22-.38-.02-.56.03-.82.26-1.62.57-2.49.61-.13,0-.27.02-.37.11-.67.57-1.47.96-2.19,1.46-.21.14-.18.26,0,.39.25.19.56.31.78.55.2.23.46.31.74.28Zm1.72,31.76c.5-.44,1.01-.85,1.23-1.5.09-.27.06-.56.18-.82.38-.83.28-1.69.12-2.53-.14-.72-.44-1.38-1.04-1.87-.51-.41-1.52-.53-2.07-.22-.29.16-.33.34-.05.49.65.35,1.04.91,1.44,1.51.52.78.73,1.63.78,2.53.04.85-.06,1.68-.58,2.41Zm26.16,16.01c-1.49-1.52-2.95-3.02-4.4-4.51-.2.12-.17.26-.17.38.01,1.09.13,2.16.62,3.16.2.4.43.6.9.6.84,0,1.68.14,2.49.36.17.05.35.12.56,0Zm-27.91-34.25c-.87.29-1.69.49-2.53.44-.84-.05-1.68-.16-2.54-.25.3,1.04.46,1.21,1.41,1.8.88.54,1.76.51,2.66.11.38-.17.64-.47.87-.84.25-.41,0-.79.12-1.27Zm21.31-38.01c-.25-.46-.43-.96-.92-1.31-.4-.29-.84-.26-1.27-.36-.89-.2-1.7.03-2.48.43-.17.08-.33.19-.43.35-.39.61-.53,1.3-.59,2.02,0,.05.03.11.07.14.07.06.14.03.2-.02.08-.08.14-.17.22-.25.46-.46.97-.84,1.61-.96,1.11-.21,2.24-.43,3.35.05.07.03.15.03.24-.08Zm-9.5,80.31c-.5-.79-.96-1.41-1.68-1.83-.61-.35-1.58-.34-2.16.07-.71.5-1.13,1.18-1.3,2.02-.02.1-.08.22.09.33.76-.29,1.59-.4,2.4-.6.85-.2,1.69-.01,2.65.01Zm5.48-104.41c-.34-.31-.66-.69-1.12-.77-.98-.17-1.98-.16-2.94.12-.5.15-1.01.37-1.24.88-.25.54-.26,1.13-.18,1.71.03.22.14.47.38.5.22.03.26-.23.35-.38.31-.53.7-.99,1.26-1.23.93-.4,1.9-.69,2.93-.67.17,0,.38.06.56-.16Zm-24.87,96.12c.34-.19.6-.26.86-.37.69-.27,1.29-1.21,1.26-1.95,0-.09-.02-.19-.04-.28-.09-.37-.31-.68-.47-1.01-.06-.13-.18-.19-.32-.17-.69.09-1.36.23-1.94.64-.22.15-.27.28-.09.49.33.37.51.81.67,1.28.14.42.07.84.08,1.37Zm-.17,6.59c.1-.01.16-.01.21-.02.39-.08,1.5-.99,1.63-1.38.14-.39.23-.79.35-1.18.25-.86-.32-1.36-.8-1.9-.15-.17-.3-.09-.3.16,0,.35-.11.67-.26.97-.44.94-.73,1.98-1.72,2.55-.11.06-.15.2-.04.29.28.24.58.47.92.52Zm-2.27-74.97c1.6,1.26,2.64,3,3.89,4.58.66-1.05.52-2.21-.3-2.94-1.01-.9-2.07-1.73-3.6-1.63Zm-8.14-5.54c.61.24,1.12.41,1.61.64.47.22.92.49,1.4.69.5.21.87.64,1.35.9.47.25.74.74,1.32,1.05-.2-.44-.35-.76-.49-1.08-.58-1.29-1.47-2.27-2.79-2.83-.31-.13-.61-.15-.92-.02-.46.2-.92.4-1.48.65Zm16.8,50.39c.34-.59.62-1.08.89-1.58.04-.07.04-.19,0-.27-.29-.65-.59-1.32-1.32-1.59-.67-.25-1.37-.41-2.09-.29-.59.1-1.16.28-1.74.43-.11.03-.26.05-.23.31,1.04-.31,1.95.02,2.89.44,1.09.49,1.25,1.49,1.58,2.55Zm17.59-60.83c0-.32-.25-.49-.42-.7-.52-.66-.85-1.36-.63-2.23.11-.44-.04-.81-.31-1.14-.23-.27-.45-.55-.67-.83-.11-.14-.19-.36-.42-.31-.25.05-.25.3-.3.49-.02.09-.01.19-.02.28-.06.46.14.87.23,1.3.2.87.58,1.65.99,2.43.3.56.9.83,1.54.71Zm-16.31,45.39c-.14.02-.31-.04-.39.08-.11.16.08.26.15.38.39.59.78,1.18.92,1.9.05.27.17.53.25.8.07.24.21.29.43.17.39-.22.77-.49.99-.89.23-.41.42-.89.24-1.34-.22-.55-.74-.87-1.29-.98-.43-.08-.89-.03-1.32-.13Zm19.66-17.05c-.81.42-1,.68-1.15,1.52-.1.55.05,1.08.04,1.62-.02.73.26,1.26.85,1.66.14.09.28.2.4.31.37.34.82.39,1.35.43-1.49-1.61-1.71-3.5-1.49-5.53Zm-16.38,65.25c-.88-.07-1.63,0-2.37.21-.37.11-.62.32-.82.63-.14.22-.16.39.03.6.29.32.5.7.69,1.08.05.1.09.22.17.28.35.26.59.6.79,1,.05-.36.05-.7.05-1.05,0-.88.2-1.66.96-2.21.17-.13.3-.32.51-.55ZM10.58,37.69c0-.73-.44-1.25-.85-1.78-.12-.16-.26-.08-.39,0-.66.44-.96,1.12-1.17,1.85-.13.46.12.86.59.96.43.1.84.04,1.25-.15.51-.24.58-.33.57-.89Zm24.29-7.72c-.05-.63.24-1.05.37-1.53.35-1.34,1.07-2.37,2.34-2.99.3-.15.57-.33.86-.49-.1-.22-.26-.15-.4-.14-.66.06-1.29.24-1.91.45-.35.12-.61.37-.81.67-.62.95-.86,2.02-.9,3.14-.01.32.16.56.45.88Zm16.24,57.25c-.35-.25-.74-.21-1.09-.32-.68-.21-1.27-.53-1.6-1.2-.08-.17-.18-.33-.3-.47-.18-.2-.44-.23-.68-.17-.25.07-.22.32-.23.52-.03.32.13.58.32.81.17.22.38.42.53.65.32.5.76.82,1.3,1.01.11.04.21.1.32.04.51-.23,1.01-.46,1.43-.88ZM35.49,11.59c.22-.02.45-.02.67-.05.16-.02.26-.15.15-.27-.34-.4-.54-.95-1.18-1.02-.3-.03-.57-.16-.84-.3-.43-.21-.88-.41-1.29-.66-.11-.06-.23-.16-.34-.01-.13.17-.17.84-.04,1.02.32.41.63.84,1.18.98.56.14,1.1.35,1.69.31Zm21.05,55.67c-.11-.1-.2-.07-.29-.06-.62.08-1.23,0-1.84-.1-.58-.1-1.11-.31-1.56-.7-.1-.08-.19-.2-.34-.12-.14.08-.11.21-.1.35.11,1.05,1.24,1.97,2.29,1.86.24-.03.48-.09.71.02.12.05.22,0,.3-.08.33-.35.57-.76.82-1.16Zm.77,49.4c.13-.33-.04-.52-.13-.71-.2-.42-.39-.84-.56-1.28-.2-.52-.54-.98-1.14-1.15-.2-.05-.38-.15-.58-.22-.55-.19-1.11-.37-1.71-.44,1.38,1.23,2.85,2.35,4.11,3.79Zm-5.95-51.96c.11-.11.1-.23.13-.33.15-.48.25-.99.55-1.4.4-.54.78-1.09,1.28-1.55.19-.17.43-.35.47-.68-.26-.08-.47.05-.67.1-.93.23-1.52.86-1.79,1.75-.15.49-.2,1.02-.28,1.54-.04.24.02.45.31.57ZM37.54,7.59c.06.56-.12,1.06-.45,1.51-.15.2-.24.41-.25.67,0,.25.09.32.33.3.63-.03,1.38-.94,1.45-1.4.04-.26.08-.54-.07-.76-.23-.34-.4-.72-.59-1.08-.04-.08-.11-.15-.17-.22-.06-.07-.15-.13-.25-.09-.11.04-.11.15-.09.24.05.28.08.55.08.84Zm-3.38,61.84c.07.01.11.03.13.02.77-.45,1.33-1.08,1.59-1.93.21-.68-.19-1.42-.92-1.75.12,1.32-.37,2.48-.8,3.67Zm7.19,61.88c-.18-.46-.48-.86-.49-1.36,0-.37-.22-.55-.54-.61-.62-.12-1.24-.12-1.98.04.93.88,1.96,1.41,3.01,1.93Zm-2.79-40.78c.21.02.45-.03.68-.09.25-.07.32-.22.27-.46-.19-.84-.7-1.17-1.54-.98-.04,0-.07,0-.11.02-.38.11-.53.39-.43.77.12.47.53.75,1.13.75Zm10.68-21.08c.04.58-.17,1.19.25,1.71.05.07.07.18.07.27,0,.33.2.5.46.65.95.52,1.92.49,2.91.1-1.83-.12-3.19-.84-3.69-2.73Zm-15.94-5.41c1.23-1.47.64-3.94-.98-4.49.45.43.56.67.63,1.31.02.15.06.29.09.44.19.77.47,1.54.26,2.36-.02.09,0,.18,0,.38Zm14.44,19.81c.11.01.13.02.14.01.05-.03.11-.05.14-.09.26-.44.67-.59,1.14-.73.88-.26,1.77-.26,2.66-.28.17,0,.45.1.49-.12.05-.22-.2-.38-.36-.53-.07-.06-.17-.05-.27-.04-.18.02-.37.04-.56.06-1.03.07-1.97.39-2.81,1-.25.18-.43.4-.58.72Zm-.52-77.32c-.2.02-.45-.02-.54.26-.17.49.53,1.35,1.06,1.26.35-.06.67-.23.96-.45.11-.08.14-.18.04-.29-.41-.43-.86-.78-1.51-.79ZM10.14,56.31c-.55,1.05-1.03,2.06-1.38,3.12-.05.15-.15.36.06.45.18.08.37-.01.5-.17.12-.14.21-.31.3-.47.4-.78.55-1.62.63-2.48.01-.12.03-.26-.1-.45ZM28.36,19.77c-.16.93-.83,1.55-1.33,2.25-.23.32-.51.59-.86.79-.5.28-1,.58-1.49.88-.1.06-.25.11-.24.3.22.07.39-.05.56-.15.38-.21.74-.44,1.12-.64.9-.48,1.59-1.17,2.09-2.06.24-.43.4-.88.16-1.38Zm-.67,118.93c-.01-.47-.14-.88-.53-1.18-.37-.29-.75-.27-1.03.08-.23.29-.17.69.18.93.27.19.57.35.88.5.32.15.51.02.51-.33Zm18.83-89.18c-.05,1.4,1.05,2.14,2.58,1.68-.98-.43-1.66-1.21-2.58-1.68ZM15.81,116.98c.04.29.06.5.1.72.08.49.21.63.72.65.34.01.66.05.99.13.27.06.55.03.87,0-.83-.62-1.72-1.01-2.67-1.49Zm43.75-54.37c-1.32,0-2.27.71-3.3,1.22,1.28.18,2.37-.18,3.3-1.22Zm-11.85-13.88l-.08.1c.82.61,1.65,1.21,2.5,1.84.08-.86-.15-1.25-.86-1.53-.5-.2-1.04-.27-1.56-.41Zm-31.3-14.23c-.44,0-.71.3-.97.59-.22.26-.15.46.16.61.47.23.78-.08,1.11-.3.18-.12.33-.27.24-.51-.09-.25-.27-.4-.55-.39Zm-7.29,20.59c-.85.5-1.39,1.17-.91,2.17.31-.75.61-1.46.91-2.17Zm34.73,39.33c0,.34.21.6.39.49.24-.13.5-.27.63-.53.06-.13.12-.3-.04-.4-.2-.12-.41-.18-.64-.06-.22.11-.36.27-.34.5Zm-19.3-14.15c.06-.14.03-.21,0-.27-.27-.47-.71-.8-1.05-1.22-.13-.16-.34-.16-.6-.02.66.44,1.06,1.05,1.66,1.52Zm-3.01-.67c.16.43.7.82,1.25.93l-1.25-.93Z"/>
</svg>